<?xml version="1.0" standalone="no"?>
<!DOCTYPE svg PUBLIC "-//W3C//DTD SVG 20010904//EN"
 "http://www.w3.org/TR/2001/REC-SVG-20010904/DTD/svg10.dtd">
<svg version="1.0" xmlns="http://www.w3.org/2000/svg"
 width="105.000000pt" height="105.000000pt" viewBox="0 0 105.000000 105.000000"
 preserveAspectRatio="xMidYMid meet">
<metadata>
Created by potrace 1.14, written by Peter Selinger 2001-2017
</metadata>
<g transform="translate(0.000000,105.000000) scale(0.100000,-0.100000)"
fill="#000000" stroke="none">
<path d="M689 946 c-2 -2 -24 -6 -49 -9 -68 -8 -180 -38 -180 -48 0 -5 3 -9 8
-9 15 0 123 -104 175 -169 54 -67 117 -164 117 -180 0 -5 6 -14 14 -20 11 -9
20 0 48 46 62 104 111 232 112 291 1 48 -2 57 -27 75 -23 18 -44 22 -121 24
-51 1 -95 1 -97 -1z"/>
<path d="M510 756 c0 -8 21 -36 46 -62 90 -94 188 -263 230 -398 19 -59 36
-78 56 -58 22 22 -70 239 -153 363 -80 120 -179 205 -179 155z"/>
<path d="M460 644 c-62 -142 -168 -277 -283 -361 -26 -19 -45 -39 -41 -44 3
-5 24 -18 47 -28 169 -76 291 -105 450 -106 85 0 90 1 113 28 33 39 31 86 -8
194 -48 133 -130 269 -223 369 l-22 23 -33 -75z"/>
</g>
</svg>
